:SAMPLES-PER-SECOND 30
:FULLY-SPECIFIED
:DEGREES
838
root  26.0993 38.6578 -13.8579 176.136 -69.1842 175.86
RightUpLeg  -14.5932 1.31132 -8.44984
RightLeg  54.3995 -1.94933 -3.33306
RightFoot  0.277799 -0.941595 9.25123
RightToes  5.47152e-009 0 -3.6325e-017
Spine  10.3325 -0.547184 -3.00876
Spine1  6.45069 -0.320128 -5.50824
HEad  -3.56896 -1.67463 -3.49131
LeftShoulder1  -0.192723 4.01763 -31.3785
LeftArm  7.44892 4.99695 -43.7918
LeftForeArm  17.989 -27.2349 -4.89646
LeftHand  -0.0663579 2.11526 1.99718
RightShoulder  -0.621994 -5.34881 26.9942
RightArm  19.398 -0.433658 50.1969
RightForeArm  2.03922 22.3075 4.80741
RightHand  -0.360528 3.18354 -5.12105
LeftUpLeg  -1.73365 4.51263 -8.5582
LeftLeg  15.7868 4.75805 0.340927
LeftFoot  -7.30238 -0.455748 14.106
LeftToes  -4.29285e-010 1.49941e-010 2.15559e-012
839
root  25.6107 38.7291 -14.2974 176.017 -72.3431 176.139
RightUpLeg  -15.4361 3.95612 -8.63172
RightLeg  47.6033 -2.52081 -3.2858
RightFoot  -0.609575 -0.819232 8.68271
RightToes  5.47152e-009 0 -3.6325e-017
Spine  10.359 -0.813095 -3.61146
Spine1  6.59657 -0.807367 -4.33891
HEad  -3.66873 -1.93988 -3.02212
LeftShoulder1  -0.158052 3.92587 -31.337
LeftArm  7.71246 4.47382 -44.0423
LeftForeArm  17.9469 -28.7053 -5.23358
LeftHand  -0.0715146 2.17111 2.19539
RightShoulder  -0.663722 -5.47688 26.9488
RightArm  19.3947 -0.337847 48.9992
RightForeArm  3.03013 23.7068 4.90402
RightHand  -0.355154 2.83442 -5.24339
LeftUpLeg  -0.616801 4.68575 -7.97792
LeftLeg  15.7296 1.272 -0.371669
LeftFoot  -7.7882 -0.403106 14.4106
LeftToes  -4.29285e-010 1.49941e-010 2.15559e-012
840
root  25.0798 38.7794 -14.7386 176.413 -75.5791 176.134
RightUpLeg  -15.672 5.73655 -9.05361
RightLeg  39.2493 -2.47718 -2.43775
RightFoot  -1.41751 -0.879174 9.9819
RightToes  5.47152e-009 0 -3.6325e-017
Spine  10.1007 -1.04738 -4.05978
Spine1  6.71755 -1.20613 -3.31111
HEad  -3.55578 -2.42564 -2.62117
LeftShoulder1  -0.118932 3.82024 -31.3936
LeftArm  8.96192 3.66486 -44.0969
LeftForeArm  17.4519 -29.1585 -5.36724
LeftHand  -0.0971076 1.95324 2.98663
RightShoulder  -0.644741 -5.42396 26.8748
RightArm  18.6805 -0.599538 48.0208
RightForeArm  3.97858 23.9855 4.91948
RightHand  -0.358416 3.61986 -4.86864
LeftUpLeg  0.138212 4.83782 -7.3916
LeftLeg  15.8209 -1.88717 -0.992228
LeftFoot  -8.70152 -0.269924 13.9326
LeftToes  -4.29285e-010 1.49941e-010 2.15559e-012
841
root  24.487 38.8023 -15.1534 178.319 -78.0364 174.703
RightUpLeg  -15.4985 7.23372 -9.80663
RightLeg  29.8141 -1.4453 -1.12558
RightFoot  -1.1958 -0.969611 10.8059
RightToes  5.47152e-009 0 -3.6325e-017
Spine  9.2791 -1.07096 -3.79744
Spine1  7.2282 -0.993191 -3.58936
HEad  -3.41124 -2.96299 -1.88414
LeftShoulder1  -0.0432324 3.62046 -30.996
LeftArm  10.3673 2.77554 -44.3625
LeftForeArm  17.2203 -28.9318 -5.32687
LeftHand  -0.118442 1.88885 3.67755
RightShoulder  -0.658859 -5.44605 27.2313
RightArm  18.5098 -0.790572 47.1931
RightForeArm  3.59358 23.1391 4.79959
RightHand  -0.341426 3.25759 -4.81539
LeftUpLeg  0.868843 4.93917 -7.09677
LeftLeg  15.8015 -4.35824 -1.5503
LeftFoot  -9.4666 -0.169995 13.8142
LeftToes  -4.29285e-010 1.49941e-010 2.15559e-012
842
root  23.8622 38.8352 -15.5206 -178.937 -80.2844 172.471
RightUpLeg  -14.705 6.68709 -10.3665
RightLeg  19.6656 1.12002 0.195852
RightFoot  -0.417105 -1.04413 10.8566
RightToes  5.47152e-009 0 -3.6325e-017
Spine  8.67863 -1.2053 -3.24742
Spine1  7.5142 -0.898437 -3.73539
HEad  -3.37399 -3.0766 -1.72922
LeftShoulder1  -0.0736063 3.70066 -31.2828
LeftArm  12.6749 1.83502 -43.8814
LeftForeArm  16.2568 -28.1263 -5.19305
LeftHand  -0.107469 1.83177 3.17006
RightShoulder  -0.620688 -5.33185 27.2277
RightArm  18.7639 -0.806169 47.008
RightForeArm  3.35302 21.0687 4.73293
RightHand  -0.284653 3.12192 -4.11739
LeftUpLeg  1.80073 5.01572 -6.75989
LeftLeg  15.2877 -6.79017 -2.13527
LeftFoot  -10.139 -0.0833558 13.7156
LeftToes  -4.29285e-010 1.49941e-010 2.15559e-012
843
root  23.1875 38.8585 -15.8725 -174.296 -82.3453 168.119
RightUpLeg  -13.0522 2.06337 -9.8354
RightLeg  9.58297 6.59311 0.00612083
RightFoot  0.311165 -1.26711 12.3753
RightToes  5.47152e-009 0 -3.6325e-017
Spine  8.40117 -1.14871 -2.44757
Spine1  7.43847 -0.623634 -3.97519
HEad  -3.01653 -3.52801 -1.79483
LeftShoulder1  -0.0447353 3.62245 -31.607
LeftArm  16.3637 0.613129 -43.6234
LeftForeArm  14.1381 -25.8155 -4.73573
LeftHand  -0.0578496 2.6486 1.93916
RightShoulder  -0.567901 -5.18509 27.0162
RightArm  18.3734 -1.36663 47.0758
RightForeArm  2.86809 18.4707 5.16407
RightHand  -0.337712 3.12781 -4.83792
LeftUpLeg  3.11991 5.32709 -6.34039
LeftLeg  14.6241 -9.30519 -2.88855
LeftFoot  -10.7096 -0.0107921 13.6236
LeftToes  -4.29285e-010 1.49941e-010 2.15559e-012
844
root  22.4607 38.8401 -16.2426 -166.838 -84.1241 160.689
RightUpLeg  -10.9956 -7.141 -7.90972
RightLeg  0.808125 14.8316 -1.73209
RightFoot  0.796204 -1.61057 15.1228
RightToes  5.47152e-009 0 -3.6325e-017
Spine  8.23519 -1.01389 -1.70596
Spine1  7.5589 -0.321988 -4.18009
HEad  -2.69215 -4.5365 -2.16351
LeftShoulder1  0.0184883 3.45547 -31.9965
LeftArm  18.3475 -0.396565 -43.5698
LeftForeArm  12.8045 -22.3437 -4.63482
LeftHand  -0.0620762 2.66036 2.07216
RightShoulder  -0.574758 -5.1959 27.2084
RightArm  17.4076 -1.45714 46.8751
RightForeArm  4.54164 15.3621 5.97305
RightHand  -0.327423 3.09265 -4.68821
LeftUpLeg  4.61179 5.58684 -5.91771
LeftLeg  14.3278 -11.6351 -3.44321
LeftFoot  -11.5983 0.10035 13.4596
LeftToes  -4.29285e-010 1.49941e-010 2.15559e-012
845
root  21.6911 38.7781 -16.6238 -156.708 -85.5623 150.663
RightUpLeg  -9.7819 -8.50764 -7.82436
RightLeg  -3.37449 14.8102 -1.52013
RightFoot  1.33902 -1.78585 16.1432
RightToes  5.47152e-009 0 -3.6325e-017
Spine  8.09856 -0.85238 -1.23468
Spine1  7.45817 -0.176762 -3.89497
HEad  -2.93409 -1.51693 -3.2756
LeftShoulder1  0.0510346 3.37188 -32.5965
LeftArm  14.954 -0.994719 -43.0629
LeftForeArm  16.5902 -18.0276 -6.6091
LeftHand  -0.0440099 3.14736 1.45435
RightShoulder  -0.53654 -5.07972 27.2473
RightArm  15.4934 -1.46438 46.9636
RightForeArm  8.88462 11.9176 6.75497
RightHand  -0.22292 2.31017 -3.56952
LeftUpLeg  5.81111 5.59249 -5.55873
LeftLeg  14.5303 -13.3283 -3.62996
LeftFoot  -12.8161 0.246548 13.0857
LeftToes  -4.29285e-010 1.49941e-010 2.15559e-012
846
root  20.9348 38.8221 -16.9793 -152.207 -86.1228 146.588
RightUpLeg  -10.41 -7.90284 -6.75376
RightLeg  -1.9256 15.8472 -1.35488
RightFoot  5.9707 -1.75991 11.9147
RightToes  5.47152e-009 0 -3.6325e-017
Spine  7.92476 -0.576702 0.440331
Spine1  7.37223 0.287412 -4.1316
HEad  -5.06907 11.822 -7.80886
LeftShoulder1  0.0366843 3.40884 -32.5879
LeftArm  7.70921 -0.45577 -42.5311
LeftForeArm  22.1712 -13.7098 -8.71828
LeftHand  -0.0426089 3.35898 1.42282
RightShoulder  -0.567416 -5.15047 27.6924
RightArm  13.7721 -1.24374 47.2603
RightForeArm  12.5901 8.80155 7.15721
RightHand  -0.223005 1.89556 -3.71937
LeftUpLeg  7.20998 5.0847 -5.1867
LeftLeg  13.3195 -13.6715 -2.91662
LeftFoot  -13.3972 0.300558 12.1989
LeftToes  -4.29285e-010 1.49941e-010 2.15559e-012
847
root  20.1025 38.8372 -17.3195 -156.136 -86.9816 150.34
RightUpLeg  -10.4166 -6.97915 -5.49785
RightLeg  0.739817 16.1721 -1.09022
RightFoot  10.4461 -1.49472 8.02506
RightToes  5.47152e-009 0 -3.6325e-017
Spine  8.29164 -0.676452 2.86759
Spine1  7.17417 0.473243 -4.70321
HEad  -6.63584 17.2008 -10.2359
LeftShoulder1  -0.00251868 3.51046 -32.7978
LeftArm  1.48236 0.926525 -41.7515
LeftForeArm  26.653 -10.1402 -9.4507
LeftHand  -0.0534779 3.46583 2.3205
RightShoulder  -0.58386 -5.18316 27.9993
RightArm  12.8359 -1.38186 47.6812
RightForeArm  15.1796 6.79165 7.06003
RightHand  -0.159544 1.09037 -2.97932
LeftUpLeg  9.1029 3.98643 -4.55269
LeftLeg  12.6846 -13.3837 -1.76899
LeftFoot  -14.2857 0.380036 11.4037
LeftToes  -4.29285e-010 1.49941e-010 2.15559e-012
848
root  19.253 38.8445 -17.5725 177.089 -87.847 176.981
RightUpLeg  -10.6521 -6.50355 -4.24817
RightLeg  4.85825 15.1851 0.279476
RightFoot  8.47995 -1.02684 6.22647
RightToes  5.47152e-009 0 -3.6325e-017
Spine  8.46808 -1.06115 6.41302
Spine1  7.20022 0.523573 -5.60977
HEad  -6.85138 16.796 -10.421
LeftShoulder1  0.0811293 3.29609 -32.9847
LeftArm  -2.1961 2.99711 -41.0974
LeftForeArm  28.5007 -7.96755 -9.25491
LeftHand  -0.040196 4.77439 2.1745
RightShoulder  -0.63341 -5.30387 28.4692
RightArm  12.5277 -1.61785 47.6279
RightForeArm  15.3626 6.24347 6.92555
RightHand  -0.120561 1.35544 -2.20312
LeftUpLeg  10.5735 1.25088 -3.8452
LeftLeg  12.8796 -11.2882 -0.601364
LeftFoot  -15.3379 0.467931 10.7172
LeftToes  -4.29285e-010 1.49941e-010 2.15559e-012
849
root  18.3767 38.8616 -17.81 115.879 -88.2176 -121.278
RightUpLeg  -10.1926 -6.61402 -3.08802
RightLeg  6.59637 13.451 1.3853
RightFoot  5.74519 -0.937859 6.49631
RightToes  5.47152e-009 0 -3.6325e-017
Spine  7.85005 -1.93429 9.61119
Spine1  6.8446 -0.202619 -5.73269
HEad  -6.32042 17.2343 -10.1698
LeftShoulder1  0.0614913 3.3473 -33.2407
LeftArm  -3.3571 5.92409 -40.4396
LeftForeArm  29.8219 -6.75428 -8.97352
LeftHand  -0.0294464 5.15961 0.475661
RightShoulder  -0.614778 -5.25271 28.4166
RightArm  12.5574 -2.12955 47.5896
RightForeArm  14.6076 6.55473 6.95241
RightHand  -0.143766 1.49264 -2.5565
LeftUpLeg  10.4701 -3.941 -2.98393
LeftLeg  14.8492 -7.22801 -0.455332
LeftFoot  -16.1125 0.510111 9.90461
LeftToes  -4.29285e-010 1.49941e-010 2.15559e-012
850
root  17.5335 38.9294 -18.1242 54.7324 -87.0849 -59.4047
RightUpLeg  -9.61418 -6.75989 -2.26858
RightLeg  7.56853 11.3702 1.68549
RightFoot  3.67643 -0.751707 5.87494
RightToes  5.47152e-009 0 -3.6325e-017
Spine  6.47608 -2.533 10.2952
Spine1  7.13231 -1.27726 -3.69815
HEad  -5.51828 16.8827 -9.57584
LeftShoulder1  0.140089 3.14393 -32.7923
LeftArm  -4.33793 8.23211 -41.0654
LeftForeArm  30.2765 -4.84119 -8.65483
LeftHand  -0.0380679 4.16178 1.2178
RightShoulder  -0.685874 -5.46365 28.3131
RightArm  13.1269 -2.80513 47.0944
RightForeArm  13.9204 8.22941 6.9405
RightHand  -0.110342 0.90701 -2.11941
LeftUpLeg  8.85451 -8.86482 -1.92413
LeftLeg  18.935 -4.68293 -1.57285
LeftFoot  -15.8509 0.390396 7.44624
LeftToes  -4.29285e-010 1.49941e-010 2.15559e-012
851
root  16.7763 38.9893 -18.4511 31.5108 -85.2102 -35.8943
RightUpLeg  -9.05246 -7.02595 -1.90332
RightLeg  9.10287 9.46449 1.71268
RightFoot  1.85452 -0.527699 4.68013
RightToes  5.47152e-009 0 -3.6325e-017
Spine  6.16704 -2.86858 9.71606
Spine1  6.96758 -2.15682 -0.873296
HEad  -5.12267 15.5992 -8.83993
LeftShoulder1  0.174673 3.05255 -32.5993
LeftArm  -3.61377 9.51935 -41.3382
LeftForeArm  31.4448 -3.91247 -8.95764
LeftHand  -0.0297697 5.62281 -0.783655
RightShoulder  -0.739857 -5.62173 28.2852
RightArm  14.4308 -3.84499 46.2347
RightForeArm  11.5071 10.9283 6.70453
RightHand  -0.164188 1.548 -2.90948
LeftUpLeg  6.57446 -8.81313 -0.341647
LeftLeg  24.3725 -7.3744 -3.33327
LeftFoot  -14.3519 0.203506 4.4142
LeftToes  -4.29285e-010 1.49941e-010 2.15559e-012
852
root  16.1016 38.9969 -18.7185 25.5405 -83.3706 -29.4655
RightUpLeg  -8.69593 -7.42113 -1.5145
RightLeg  10.2351 8.09887 2.00506
RightFoot  0.240381 -0.408328 4.02788
RightToes  5.47152e-009 0 -3.6325e-017
Spine  6.52003 -3.16435 10.6499
Spine1  5.83762 -2.4671 0.104169
HEad  -5.69542 14.1975 -7.89234
LeftShoulder1  0.207552 2.96158 -32.1594
LeftArm  -3.36628 10.6274 -41.6143
LeftForeArm  34.4047 -3.74169 -9.10173
LeftHand  -0.0210651 4.87329 -1.82551
RightShoulder  -0.714102 -5.56212 28.0172
RightArm  15.5308 -5.12173 45.7815
RightForeArm  9.50684 13.5015 6.10572
RightHand  -0.160098 2.13415 -2.63755
LeftUpLeg  2.88783 -8.16585 1.44453
LeftLeg  31.4453 -9.26802 -5.73423
LeftFoot  -11.6183 0.0775067 0.968036
LeftToes  -4.29285e-010 1.49941e-010 2.15559e-012
